<svg xmlns="http://www.w3.org/2000/svg" viewBox="0 0 124.61 141.33"><defs><style>.cls-1{fill:#f2f2f2;}.cls-2{fill:#fc5bb4;}</style></defs><title>shell-icon</title><g id="Layer_2" data-name="Layer 2"><g id="Layer_1-2" data-name="Layer 1"><g id="Tiny_Logo_with_Stroke" data-name="Tiny Logo with Stroke"><path class="cls-1" d="M78.7,0,75.35,5.83,54.26,42.6l-1-.27h0a41.13,41.13,0,0,0-9.6-1.13,41.78,41.78,0,0,0-16.07,3.19,42.8,42.8,0,0,0-6,3,41.11,41.11,0,0,0-5.52,4,43,43,0,0,0-4.78,4.83c-.32.37-.59.72-.83,1l-.22.28,0,0,0,0-.45.58-.1.13-.09.13L9,59.16l0,0,0,0-.47.68,0,0,0,0-.37.55h0l-.58.88-.13.19-.11.2-.8,1.41h0l-.09.16c-.21.37-.48.84-.74,1.37-.4.79-.89,1.76-1.34,2.8a50.2,50.2,0,0,0-2.2,6l0,.06,0,.06A50.76,50.76,0,0,0,0,86.48a51.59,51.59,0,0,0,5.89,25.4v0a52.4,52.4,0,0,0,7.67,10.9h0c.67.72,1.45,1.55,2.31,2.36s1.69,1.56,2.44,2.21,1.51,1.23,2.21,1.78l.36.28.14.11.14.1,1.36,1,0,0,0,0,.69.47,0,0,0,0,.46.3.86.57.1.06h0l.54.33.25.14h0l.3.17h0l.59.34h0c.82.47,1.74,1,2.75,1.49l0,0c.82.42,1.75.89,2.77,1.32l.06,0c.83.37,1.77.79,2.79,1.16a61.85,61.85,0,0,0,22.41,4.19,63,63,0,0,0,13.85-1.54,64,64,0,0,0,31.08-17.11l.06-.06.06-.06.17-.18,1.64-1.7.12-.13.12-.14,1.69-1.95,0-.05,0-.05c.5-.6.95-1.17,1.38-1.72l.37-.47,0,0,0,0,.4-.51.09-.12.08-.12.43-.6v0l.54-.77.31-.45,0,0,0,0,.76-1.12,0,0,0,0,.5-.75.5-.75.12-.18.11-.18.33-.58.46-.8v0l1.18-2.08.05-.09,0-.09c.36-.68.69-1.35,1-2l.12-.23.16-.32.38-.77.06-.12.06-.12.24-.54.24-.53V102l.89-2,.05-.12.06-.15.06-.15.83-2.16v0l.42-1.11,0-.13,0-.13.35-1.06,0-.06,0-.06.08-.24a80.37,80.37,0,0,0,5.24-33.24c-1-17.31-8.77-41.45-39.86-58.16L78.7,0Z"/><path class="cls-2" d="M81.35,9.27,59.15,48,62,49.37l.35.15a2,2,0,0,1,.26.14l.3.17c.41.23.86.47,1.32.78l.73.46.75.54c.54.35,1,.8,1.62,1.23a30.73,30.73,0,0,1,6.82,8A31.88,31.88,0,0,1,76.87,67a30.62,30.62,0,0,1,1.49,7.46,33.64,33.64,0,0,1,.08,4.12c0,.35-.05.7-.08,1.06l0,.54-.07.53-.13,1.08-.19,1.08-.09.55-.13.54-.25,1.1-.32,1.1-.15.56-.19.55-.38,1.11L76,89.52l-.11.28-.06.14c.08-.15-.23.43.18-.31l0,.1-.4.81-.61,1.22-.14.32-.07.17-.13.23c-.18.31-.35.63-.54.94s-.39.61-.59.92l-.64.9a24.65,24.65,0,0,1-3,3.35,25.34,25.34,0,0,1-8.16,5,26.42,26.42,0,0,1-15.48,1c-.45-.09-.89-.23-1.33-.35s-.88-.27-1.33-.42-.88-.32-1.32-.5l-.33-.13-.16-.06c-.29-.16.3.18.2.12l-.12-.06-.93-.46-.63-.31-.39-.17c-.34-.2-.73-.4-1.08-.63s-.72-.45-1.05-.71-.68-.51-1-.77a20.59,20.59,0,0,1-3.57-3.79,21.33,21.33,0,0,1-3.87-10.11,21.83,21.83,0,0,1,.1-5.63,22.81,22.81,0,0,1,.62-2.8c.12-.47.29-.92.44-1.38.07-.23.17-.46.26-.68l.14-.34.07-.17,0-.09c0,.07.14-.28-.09.13l.74-1.5.09-.21.16-.28c.11-.19.21-.39.33-.57a16.13,16.13,0,0,1,1.57-2.12,14.92,14.92,0,0,1,1.92-1.87,17.18,17.18,0,0,1,2.22-1.56,17.85,17.85,0,0,1,10.72-2.34,20.22,20.22,0,0,1,2.79.5,21.94,21.94,0,0,1,2.71.94c-.63-.36-.11-.07-.22-.13l.11.06.22.12.44.23.89.47a1.5,1.5,0,0,1,.27.17l.2.13.41.24.11.06.12.1.26.2.52.39a3.63,3.63,0,0,1,.49.43l.48.45a14.51,14.51,0,0,1,4.2,9.6,15.29,15.29,0,0,1-.72,5.36c-.17.42-.33.85-.49,1.29l0,.08c0,.08.23-.39.09-.14l-.11.2-.22.41-.43.82c-.2.29-.33.53-.53.84s-.5.68-.78,1a12.19,12.19,0,0,1-9,4,12.47,12.47,0,0,1-5-1l-.15-.06s-.22-.11.09.07l-.09,0-.36-.19-.72-.38-.41-.27a2.64,2.64,0,0,1-.43-.28,8.85,8.85,0,0,1-.9-.75l-.43-.4-.38-.45a10.6,10.6,0,0,1-1.3-2,11.08,11.08,0,0,1-.79-2.2,10.6,10.6,0,0,1-.08-4.6c.08-.38.2-.74.29-1.11L40.17,78s-.1.16,0,0l0-.08.08-.15.16-.31.16-.31,0-.08,0,0,.06-.09.24-.39a4.49,4.49,0,0,1,.31-.41,8.51,8.51,0,0,1,1.5-1.48,9.25,9.25,0,0,1,.88-.57l.46-.26.48-.21a8.44,8.44,0,0,1,1-.36c.33-.1.67-.16,1-.24a9.11,9.11,0,0,1,5.81,1l.12.06.09.06.17.11c.12.08.23.14.35.23a7.49,7.49,0,0,1,.69.59l.32.31.29.34a7.27,7.27,0,0,1,.52.72,7.55,7.55,0,0,1,1.12,3.19,7.66,7.66,0,0,1-.28,3.12,6.86,6.86,0,0,1-1.31,2.47,6.54,6.54,0,0,1-3.92,2.18,6.75,6.75,0,0,1-2.92-.2,5.32,5.32,0,0,1-.72-.26l-.24-.1.23.13a5.28,5.28,0,0,0,.7.35,7,7,0,0,0,3,.57A7.33,7.33,0,0,0,55.27,86a8.12,8.12,0,0,0,1.91-2.72A9.37,9.37,0,0,0,58,79.54a9.78,9.78,0,0,0-4.08-8,12.49,12.49,0,0,0-10.64-1.79l-.74.22-.72.29a12.42,12.42,0,0,0-4,2.66c-.2.2-.4.37-.6.61l-.59.72-.15.18-.12.17-.2.29-.2.29-.1.14,0,.07-.11.19c-.27.49-.54,1-.8,1.49s-.46,1-.65,1.59a16.45,16.45,0,0,0-.79,7.11A16.29,16.29,0,0,0,36,93l.55.84.63.79a16.34,16.34,0,0,0,1.39,1.5,9.48,9.48,0,0,0,.84.73c.29.24.61.5.89.71l.67.47.34.23.08.06.28.16.22.12a20.67,20.67,0,0,0,7.85,2.67,21.38,21.38,0,0,0,8.71-.7,21.85,21.85,0,0,0,8.08-4.39c.61-.51,1.15-1.09,1.73-1.65s1.16-1.38,1.69-2.07l.53-.76.26-.38.13-.19.21-.35.07-.13q.56-1,1.11-2.06a27.12,27.12,0,0,0,2.54-9.26,27.43,27.43,0,0,0-.94-9.91,27.83,27.83,0,0,0-4.62-9.24l-.83-1a11.88,11.88,0,0,0-.87-1l-.94-1-.47-.48-.24-.24-.29-.24-1.18-1-.6-.47c-.19-.15-.44-.34-.54-.41l-.82-.57L62,53.49l-.21-.14-.1-.07c-.18-.11.27.14-.44-.26a37.26,37.26,0,0,0-4.64-2.34,36.3,36.3,0,0,0-5-1.62,35,35,0,0,0-21.42,1.73,35.74,35.74,0,0,0-5,2.55,34.11,34.11,0,0,0-4.59,3.35,35.84,35.84,0,0,0-4,4.08c-.32.36-.6.75-.9,1.13l-.45.58-.47.67-.47.68-.37.55-.58.88-.8,1.41c-.23.4-.46.8-.66,1.21-.42.82-.83,1.64-1.19,2.49A42.79,42.79,0,0,0,6.93,86.67a44.78,44.78,0,0,0,5.11,22,45.5,45.5,0,0,0,6.65,9.46c.66.71,1.32,1.42,2,2.08s1.42,1.32,2.16,2,1.5,1.21,2.29,1.82l1.36,1,.69.47.46.3.87.57.11.07.43.24.3.17.59.34c.79.45,1.58.91,2.41,1.31s1.63.83,2.48,1.19,1.68.75,2.54,1.06A54.83,54.83,0,0,0,48,133.62,55.85,55.85,0,0,0,69.69,133a56.9,56.9,0,0,0,19.59-8.53,57.59,57.59,0,0,0,8.14-6.73l1.81-1.89,1.71-2c.56-.66,1.08-1.35,1.61-2l.4-.51.43-.6.84-1.21.76-1.12.5-.75.5-.75.79-1.38,1.17-2.07c.37-.7.72-1.41,1.07-2.11l.53-1.06.48-1.07.94-2.15.84-2.18.41-1.09.36-1.1.19-.59S136.09,38.7,81.35,9.27Z"/></g></g></g></svg>