<svg xmlns="http://www.w3.org/2000/svg" width="580.28" height="580.29" viewBox="0 0 580.28 580.29"><defs><style>.cls-1{fill:#fff;fill-rule:evenodd;}</style></defs><title>ge</title><g id="Layer_2" data-name="Layer 2"><g id="Layer_1-2" data-name="Layer 1"><path class="cls-1" d="M580.28,290.14C580.28,130.19,450.09,0,290.14,0S0,130.19,0,290.14C0,450.71,130.19,580.29,290.14,580.29S580.28,450.71,580.28,290.14Zm-13.84,0c0,152.72-123.58,276.3-276.3,276.3S13.64,442.86,13.64,290.14s123.78-276.5,276.5-276.5,276.3,124.61,276.3,276.5Zm-17.57,0c0-91.75-46.71-186.61-147.14-217C380.86,66.75,363.3,62.62,343,62.62c-46.5,0-48.15,26.45-69.85,26.45-12,0-20-8.68-20-19.22,0-18.39,21.7-32.86,56.21-32.86,32.24,0,57,8.06,61.79,10.33l.83-2.27c-8.68-3.31-39.27-13.85-81.84-13.85-92.58,0-186.61,47.53-217,147.14C66.75,199.22,62.62,217,62.62,237c0,46.7,26.45,49,26.45,70.68a19,19,0,0,1-19.22,19.43C51.46,327.13,37,306.05,37,270.72a210.86,210.86,0,0,1,9.51-61.79l-2.27-.83c-2.48,9.71-13,39.47-13,82,0,93.2,47.53,187.23,147.14,217.81,20.87,6.41,38.65,10.33,58.69,10.33,46.7,0,48.15-27.28,69.85-27.28a20,20,0,0,1,20.25,20c0,17.77-21.08,32.24-56.42,32.24-32,0-57.86-8.06-61.79-9.71l-.83,2.48c8.89,3.93,39.47,12.81,82,12.81,92.38,0,187.23-46.7,217-147.14,6.41-20,10.33-38.44,10.33-57.86,0-47.32-26.45-49-26.45-70.67,0-12,8.06-20,19.22-20,18.6,0,33.06,21.7,33.06,57A211.12,211.12,0,0,1,533.58,372l2.48.83c3.1-9.51,12.81-39.26,12.81-82.66Zm-97.34,77.08c0,36.16-31.2,74-77.08,74-55.38,0-83.49-46.7-83.49-88.45,0-58.69,40.09-83.49,57-92.37a29,29,0,0,1-8.06-9.71c-19.42,13.64-37,25.83-74,46.7-1.65,25.62-3.93,53.73-10.54,73.16-13.64,40.92-41.74,70.68-78.73,70.68-31.21,0-46.5-22.53-46.5-46.7,0-17.56,10.33-40.09,28.93-57,23.35-20.87,49-33.68,84.31-52.28.83-4.75,1.65-9.51,2.48-15.29-8.89,8.06-21.7,11.37-32.24,11.37-16.74,0-30.59-14.47-33.69-29.76-22.53-1.65-39.47-17.77-40.3-43.4,0-18.39,7.23-34.51,19.43-34.51,4.75,0,6.41,3.93,6.41,7.23,0,3.1-4.13,13.64-4.13,24,0,10.54,5,24.18,17.77,24.18,0-41.74,30.58-95.68,66.75-95.68,24,0,27.28,17.77,27.28,25.83,0,37.82-37.82,79.56-68.4,89.89.83,3.31,4.13,12.19,13.85,12.19,12,0,26.45-11.37,33.69-20.25,3.1-16.74,15.29-40.92,31.41-40.92,6.41,0,9.51,4.75,9.51,10.54,0,12-12.81,27.28-22.52,37.61a144.24,144.24,0,0,0-2.27,24.18c28.11-16.94,42.57-25.63,63.44-40.92-1.65-5.58-1.65-12.19-1.65-18.6,0-37.61,25-79.56,57.86-79.56,18.6,0,28.11,13,28.11,27.49C416.2,188.06,392.85,212,360,237c2.48,6.41,6.41,12,12.81,15.29.83-1.65,11.37-3.31,20-3.31,9.71,0,23.35,2.48,23.35,12.19,0,11.16-15.29,13.64-27.28,13.64-6.41.83-16.95-1.65-16.95-1.65-17.56,4.75-51.46,25-51.46,76.25,0,34.72,21.7,66.75,55.59,66.75,25.62,0,46.5-19.22,47.32-49,0-19.22-8.06-39.47-27.28-39.47-9.71,0-18.39,7.23-18.39,17.77-.82,16.12,11.16,17.77,11.16,28.1,0,7.23-5.58,10.54-11.16,10.54-16.12,0-28.31-16.12-28.31-36.16,0-24.18,21.08-44.22,48.36-44.22,35.34,0,53.73,30.59,53.73,63.44ZM392.23,164.7c0-3.93-.83-8.88-5.79-8.88-12,0-31.21,25.83-31.21,58.69,24-20.87,37-38.64,37-49.8ZM249.84,161.4c0-3.93-2.27-5.58-5.58-5.58-16.95,0-40.92,44.22-40.92,70.68,26.45-14.47,46.5-47.32,46.5-65.1Zm-9.5,150.44c-36.17,17.57-82,49-82,83.49,0,12.81,6.41,20.87,18.39,20.87,35.34,0,57-56.21,63.65-104.36Z"/></g></g></svg>