<?xml version="1.0" encoding="utf-8"?>
<!-- Generator: Adobe Illustrator 21.0.0, SVG Export Plug-In . SVG Version: 6.00 Build 0)  -->
<svg version="1.1" id="Layer_1" xmlns="http://www.w3.org/2000/svg" xmlns:xlink="http://www.w3.org/1999/xlink" x="0px" y="0px"
	 width="486.3px" height="171.1px" viewBox="0 0 486.3 171.1" style="enable-background:new 0 0 486.3 171.1;" xml:space="preserve"
	>
<style type="text/css">
	.st0{fill:#FFFFFF;}
	.st1{fill:none;}
</style>
<g>
	<path class="st0" d="M78.9,60.2c-4.6,0-5.9,2-5.9,6.5v7.4h12.2l-1.2,12H73v36.5H58.4V86.2h-9.9v-12h9.9v-7.2
		c0-12.1,4.9-18.5,18.5-18.5c3,0,6.4,0.2,8.6,0.5v11.3H78.9z"/>
	<path class="st0" d="M86.3,96.9c0-13.5,6.4-23.7,19.9-23.7c7.3,0,11.8,3.8,14,8.5v-7.4h14.1v48.5h-14.1v-7.3c-2,4.7-6.6,8.4-14,8.4
		c-13.4,0-19.9-10.2-19.9-23.7V96.9z M100.9,100.1c0,7.2,2.6,12,9.5,12c6,0,9.1-4.4,9.1-11.3V96c0-6.9-3.1-11.3-9.1-11.3
		c-6.8,0-9.5,4.8-9.5,12V100.1z"/>
	<path class="st0" d="M164.7,73.1c5.7,0,11.1,1.2,14.1,3.3l-3.3,10.4c-2.2-1.1-5.9-2.2-9.8-2.2c-7.9,0-11.4,4.6-11.4,12.4v2.9
		c0,7.8,3.5,12.4,11.4,12.4c3.9,0,7.5-1.1,9.8-2.2l3.3,10.4c-3,2-8.4,3.3-14.1,3.3c-17.2,0-25.1-9.3-25.1-24.1v-2.2
		C139.7,82.4,147.5,73.1,164.7,73.1z"/>
	<path class="st0" d="M180.7,100.2V96c0-13.8,7.8-22.8,23.8-22.8c15.1,0,21.7,9.2,21.7,22.6v7.7h-30.9c0.3,6.6,3.3,9.6,11.4,9.6
		c5.5,0,11.3-1.1,15.6-3l2.6,10.1c-3.9,2-11.8,3.6-18.8,3.6C187.6,123.8,180.7,114.5,180.7,100.2z M195.4,93.9h17.7v-1.2
		c0-5.3-2.1-9.5-8.6-9.5C197.9,83.2,195.4,87.4,195.4,93.9z"/>
	<path class="st0" d="M280.6,99.9c0,13.5-6.5,23.7-20,23.7c-7.3,0-12.4-3.7-14.5-8.4v7.3h-13.9V49.8l14.7-1.3v32.4
		c2.1-4.3,6.8-7.7,13.7-7.7c13.4,0,20,10.2,20,23.7V99.9z M266,96.6c0-6.8-2.6-11.9-9.7-11.9c-6,0-9.3,4.3-9.3,11.2v5.1
		c0,6.9,3.3,11.2,9.3,11.2c7,0,9.7-5.1,9.7-11.9V96.6z"/>
	<path class="st0" d="M285.5,99.6v-2.4c0-14,7.9-24,24.1-24c16.2,0,24.1,10.1,24.1,24v2.4c0,14-7.9,24-24.1,24
		C293.5,123.7,285.5,113.6,285.5,99.6z M319.1,96.2c0-6.4-2.6-11.5-9.5-11.5c-6.8,0-9.5,5.1-9.5,11.5v4.5c0,6.4,2.6,11.5,9.5,11.5
		c6.8,0,9.5-5.1,9.5-11.5V96.2z"/>
	<path class="st0" d="M338.7,99.6v-2.4c0-14,7.9-24,24.1-24c16.2,0,24.1,10.1,24.1,24v2.4c0,14-7.9,24-24.1,24
		C346.6,123.7,338.7,113.6,338.7,99.6z M372.3,96.2c0-6.4-2.6-11.5-9.5-11.5c-6.8,0-9.5,5.1-9.5,11.5v4.5c0,6.4,2.6,11.5,9.5,11.5
		c6.8,0,9.5-5.1,9.5-11.5V96.2z"/>
	<path class="st0" d="M407.1,97.3l14.5-23.1h15.6L422,98.1l15.8,24.6h-15.6l-15.1-23.7v23.7h-14.7V49.8l14.7-1.3V97.3z"/>
</g>
<polyline class="st1" points="486.3,0 486.3,171.1 0,171.1 "/>
</svg>
